<svg width="2238" height="352" viewBox="0 0 2238 352" fill="none" xmlns="http://www.w3.org/2000/svg">
<g clip-path="url(#clip0_9_41)">
<path d="M178.3 2.83999V85.14C178.3 85.89 178 86.62 177.47 87.15L91.1601 173.46C90.0501 174.57 90.0501 176.37 91.1601 177.48L177.47 263.79C178 264.32 178.3 265.04 178.3 265.8V348.09C178.3 350.62 175.24 351.89 173.45 350.1L0.830059 177.48C-0.279941 176.37 -0.279941 174.57 0.830059 173.46L173.45 0.83999C175.24 -0.95001 178.3 0.31999 178.3 2.84999V2.83999Z" fill="url(#paint0_linear_9_41)"/>
<path d="M178.3 118.56V232.39C178.3 234.92 175.24 236.19 173.45 234.4L116.54 177.49C115.43 176.38 115.43 174.58 116.54 173.47L173.45 116.56C175.24 114.77 178.3 116.04 178.3 118.57V118.56Z" fill="url(#paint1_linear_9_41)"/>
<path d="M375.45 173.47C374.34 174.58 374.34 176.38 375.45 177.49L461.77 263.8C462.3 264.34 462.6 265.06 462.6 265.81V348.1C462.6 350.63 459.54 351.9 457.75 350.11L331.71 224.07C330.14 222.5 327.6 222.5 326.03 224.07L199.99 350.11C198.2 351.9 195.15 350.63 195.15 348.1V265.81C195.15 265.06 195.45 264.34 195.98 263.8L282.29 177.49C283.4 176.38 283.4 174.58 282.29 173.47L195.98 87.16C195.45 86.62 195.15 85.9 195.15 85.15V2.84999C195.15 0.31999 198.21 -0.95001 200 0.83999L326.04 126.88C327.61 128.45 330.15 128.45 331.72 126.88L457.75 0.83999C459.54 -0.95001 462.59 0.31999 462.59 2.84999V85.15C462.59 85.9 462.29 86.62 461.76 87.16L375.44 173.47H375.45Z" fill="url(#paint2_linear_9_41)"/>
<path d="M479.44 2.83999V85.14C479.44 85.89 479.74 86.62 480.27 87.15L566.58 173.46C567.69 174.57 567.69 176.37 566.58 177.48L480.27 263.79C479.74 264.32 479.44 265.04 479.44 265.8V348.09C479.44 350.62 482.5 351.89 484.29 350.1L656.91 177.48C658.02 176.37 658.02 174.57 656.91 173.46L484.29 0.83999C482.5 -0.95001 479.44 0.31999 479.44 2.84999V2.83999Z" fill="url(#paint3_linear_9_41)"/>
<path d="M479.44 116.92V234.03C479.44 235.95 481.77 236.92 483.13 235.56L541.69 177C542.53 176.16 542.53 174.79 541.69 173.95L483.13 115.39C481.77 114.03 479.44 114.99 479.44 116.92Z" fill="url(#paint4_linear_9_41)"/>
<path d="M915.944 59.2978C916.139 74.5465 904.056 86.9518 888.397 87.1517C872.739 87.3516 860.543 75.2663 860.348 60.0076C860.154 44.7488 872.039 32.5561 887.698 32.3562C903.356 32.1563 915.754 44.439 915.944 59.2978Z" fill="url(#paint5_radial_9_41)"/>
<path d="M912.14 113.69H863.78C863.333 113.69 862.97 114.053 862.97 114.5V325.64C862.97 326.087 863.333 326.45 863.78 326.45H912.14C912.587 326.45 912.95 326.087 912.95 325.64V114.5C912.95 114.053 912.587 113.69 912.14 113.69Z" fill="#020617"/>
<path d="M938.58 113.69H990.03C990.39 113.69 990.7 113.92 990.8 114.27L1039.83 279.51C1039.93 279.85 1040.25 280.09 1040.6 280.09C1040.96 280.09 1041.27 279.85 1041.37 279.51L1090.2 114.27C1090.3 113.93 1090.62 113.69 1090.97 113.69H1141.42C1141.98 113.69 1142.37 114.24 1142.18 114.76L1067.88 325.91C1067.77 326.23 1067.46 326.45 1067.12 326.45H1013.27C1012.93 326.45 1012.62 326.23 1012.51 325.91L937.81 114.76C937.62 114.24 938.01 113.68 938.57 113.68L938.58 113.69Z" fill="#020617"/>
<path d="M1149.19 220.67V220.47C1149.19 153.43 1188.33 109.27 1249.15 109.27C1309.97 109.27 1347.7 152.02 1347.7 216.25V231.5C1347.7 231.95 1347.34 232.31 1346.89 232.31H1199.6C1199.14 232.31 1198.77 232.69 1198.79 233.15C1199.88 269.98 1220.29 291.73 1252.56 291.73C1277.45 291.73 1293.71 278.48 1298.52 264.23L1298.75 263.41C1298.85 263.06 1299.17 262.83 1299.53 262.83H1344.63C1345.16 262.83 1345.55 263.34 1345.41 263.85L1345.09 265.04C1338.47 297.76 1307.15 330.67 1251.56 330.67C1187.73 330.67 1149.19 288.32 1149.19 220.68V220.67ZM1200.29 198.99H1298.22C1298.7 198.99 1299.08 198.56 1299.03 198.08C1295.17 164.96 1276.01 148.41 1249.75 148.41C1223.49 148.41 1203.76 165.94 1199.49 198.07C1199.43 198.55 1199.81 198.99 1200.29 198.99Z" fill="#020617"/>
<path d="M1429.5 219.83L1362.53 114.93C1362.19 114.39 1362.57 113.69 1363.21 113.69H1417.47C1417.76 113.69 1418.03 113.84 1418.17 114.1L1460.46 187.95C1460.6 188.2 1460.87 188.36 1461.16 188.36H1461.43C1461.72 188.36 1461.99 188.2 1462.13 187.95L1504.02 114.1C1504.16 113.85 1504.43 113.69 1504.72 113.69H1557.36C1558 113.69 1558.39 114.4 1558.04 114.94L1490.69 218.44C1490.52 218.7 1490.52 219.04 1490.69 219.31L1557.48 325.22C1557.82 325.76 1557.43 326.46 1556.8 326.46H1504.13C1503.84 326.46 1503.58 326.31 1503.43 326.06L1459.74 250.59C1459.6 250.34 1459.33 250.19 1459.04 250.19H1458.77C1458.48 250.19 1458.22 250.34 1458.07 250.59L1414.58 326.05C1414.44 326.3 1414.17 326.45 1413.88 326.45H1362.44C1361.8 326.45 1361.42 325.74 1361.76 325.2L1429.52 220.7C1429.69 220.43 1429.69 220.09 1429.52 219.83H1429.5Z" fill="#020617"/>
<path d="M1689.91 113.69V152.23H1648.16V326.45H1598.18V152.23H1569.08V113.69H1598.18V93.42C1598.18 51.87 1619.81 34.07 1664.02 28.93C1673.99 27.77 1682.92 27.7 1689.61 27.7V5.16998L1764.61 48.47L1689.61 91.77V69.45C1685.48 69.08 1680.72 68.44 1675.57 69.06C1656.24 71.4 1647.15 77.56 1647.15 94.83V113.69H1689.91Z" fill="#020617"/>
<path d="M740.48 152.23H712.99C712.54 152.23 712.18 151.87 712.18 151.42V114.5C712.18 114.05 712.54 113.69 712.99 113.69H740.48C740.93 113.69 741.29 113.33 741.29 112.88V93.41C741.29 51.86 760.96 32.59 807.13 32.59C816.63 32.59 826.88 33.34 833.17 34.48C833.55 34.55 833.82 34.88 833.82 35.27V68.59C833.82 69.08 833.39 69.45 832.9 69.39C828.97 68.86 823.78 68.52 818.76 68.52C799.29 68.52 790.26 77.55 790.26 94.81V112.87C790.26 113.32 790.62 113.68 791.07 113.68H832.21C832.66 113.68 833.02 114.04 833.02 114.49V151.41C833.02 151.86 832.66 152.22 832.21 152.22H792.07C791.62 152.22 791.26 152.58 791.26 153.03V325.64C791.26 326.09 790.9 326.45 790.45 326.45H742.08C741.63 326.45 741.27 326.09 741.27 325.64V153.04C741.27 152.59 740.91 152.23 740.46 152.23H740.48Z" fill="#020617"/>
<path d="M1702.95 265.83V265.43C1702.95 227.7 1732.25 205.01 1783.84 201.8L1838.68 198.43C1839.11 198.4 1839.44 198.05 1839.44 197.63V183.74C1839.44 162.26 1825.39 149.22 1800.1 149.22C1776.42 149.22 1761.96 160.26 1758.75 175.92L1758.49 177.09C1758.41 177.46 1758.08 177.72 1757.7 177.72H1712.86C1712.39 177.72 1712.02 177.32 1712.06 176.85L1712.19 175.32C1715.2 137.59 1747.92 109.28 1801.91 109.28C1855.9 109.28 1889.42 137.38 1889.42 180.13V325.65C1889.42 326.1 1889.06 326.46 1888.61 326.46H1840.24C1839.79 326.46 1839.43 326.1 1839.43 325.65V293.74H1838.7C1838.41 293.74 1838.15 293.9 1838 294.15C1825.69 316.19 1802.13 330.07 1774.2 330.07C1731.65 330.07 1702.95 303.78 1702.95 265.84V265.83ZM1789.06 291.92C1817.76 291.92 1839.44 272.85 1839.44 247.56V232.36C1839.44 231.89 1839.05 231.53 1838.58 231.56L1790.86 234.52C1766.17 236.13 1752.72 246.76 1752.72 263.62V263.82C1752.72 281.28 1767.17 291.92 1789.05 291.92H1789.06Z" fill="#020617"/>
<path d="M1920.52 264.63L1920.42 263.72C1920.37 263.24 1920.74 262.82 1921.22 262.82H1968.85C1969.23 262.82 1969.56 263.08 1969.64 263.45L1969.9 264.62C1973.71 282.89 1987.56 293.72 2012.85 293.72C2038.14 293.72 2051.79 283.89 2051.79 268.23V268.03C2051.79 255.18 2044.36 247.96 2022.29 242.94L1986.96 235.11C1946.21 226.08 1925.74 206.21 1925.74 174.69V174.49C1925.74 135.55 1959.66 109.26 2011.04 109.26C2062.42 109.26 2094.94 138.36 2096.75 175.09L2096.87 176.42C2096.91 176.89 2096.54 177.3 2096.07 177.3H2051.1C2050.69 177.3 2050.35 177 2050.3 176.59L2050.19 175.69C2047.98 158.63 2034.33 146.19 2011.05 146.19C1988.97 146.19 1975.12 156.43 1975.12 172.08V172.28C1975.12 184.52 1983.35 192.55 2005.43 197.57L2040.96 205.4C2084.92 215.23 2101.98 232.5 2101.98 263.41V263.61C2101.98 303.75 2064.85 330.65 2012.66 330.65C1956.86 330.65 1924.95 304.16 1920.53 264.61L1920.52 264.63Z" fill="#020617"/>
<path d="M2147.13 268.85V153.04C2147.13 152.59 2146.77 152.23 2146.32 152.23H2117.83C2117.38 152.23 2117.02 151.87 2117.02 151.42V114.5C2117.02 114.05 2117.38 113.69 2117.83 113.69H2146.32C2146.77 113.69 2147.13 113.33 2147.13 112.88V60.5099C2147.13 60.0599 2147.49 59.7 2147.94 59.7H2197.11C2197.56 59.7 2197.92 60.0599 2197.92 60.5099V112.89C2197.92 113.34 2198.28 113.7 2198.73 113.7H2236.66C2237.11 113.7 2237.47 114.06 2237.47 114.51V151.43C2237.47 151.88 2237.11 152.24 2236.66 152.24H2198.73C2198.28 152.24 2197.92 152.6 2197.92 153.05V264.64C2197.92 285.52 2207.15 292.14 2225.42 292.14C2229.84 292.14 2233.41 291.63 2236.6 291.39C2237.07 291.36 2237.46 291.73 2237.46 292.2V328.17C2237.46 328.57 2237.17 328.91 2236.77 328.97C2230.95 329.76 2222.42 330.68 2212.77 330.68C2168.21 330.68 2147.14 312.62 2147.14 268.86L2147.13 268.85Z" fill="#020617"/>
</g>
<defs>
<linearGradient id="paint0_linear_9_41" x1="75.4401" y1="47.51" x2="158.44" y2="299.62" gradientUnits="userSpaceOnUse">
<stop stop-color="#00FDFF"/>
<stop offset="0.49" stop-color="#6B98D4"/>
<stop offset="0.5" stop-color="#6B97D3"/>
<stop offset="0.84" stop-color="#D549B6"/>
<stop offset="1" stop-color="#FF2BAB"/>
</linearGradient>
<linearGradient id="paint1_linear_9_41" x1="110.45" y1="35.98" x2="193.95" y2="289.61" gradientUnits="userSpaceOnUse">
<stop stop-color="#00FDFF"/>
<stop offset="0.49" stop-color="#6B98D4"/>
<stop offset="0.5" stop-color="#6B97D3"/>
<stop offset="0.84" stop-color="#D549B6"/>
<stop offset="1" stop-color="#FF2BAB"/>
</linearGradient>
<linearGradient id="paint2_linear_9_41" x1="304.51" y1="-2.79001" x2="348.94" y2="322.3" gradientUnits="userSpaceOnUse">
<stop stop-color="#00FDFF"/>
<stop offset="0.49" stop-color="#6B98D4"/>
<stop offset="0.5" stop-color="#6B97D3"/>
<stop offset="0.84" stop-color="#D549B6"/>
<stop offset="1" stop-color="#FF2BAB"/>
</linearGradient>
<linearGradient id="paint3_linear_9_41" x1="468.2" y1="-43.15" x2="583.15" y2="306.01" gradientUnits="userSpaceOnUse">
<stop stop-color="#00FDFF"/>
<stop offset="0.49" stop-color="#6B98D4"/>
<stop offset="0.5" stop-color="#6B97D3"/>
<stop offset="0.84" stop-color="#D549B6"/>
<stop offset="1" stop-color="#FF2BAB"/>
</linearGradient>
<linearGradient id="paint4_linear_9_41" x1="432.19" y1="-34.28" x2="533.29" y2="272.84" gradientUnits="userSpaceOnUse">
<stop stop-color="#00FDFF"/>
<stop offset="0.49" stop-color="#6B98D4"/>
<stop offset="0.5" stop-color="#6B97D3"/>
<stop offset="0.84" stop-color="#D549B6"/>
<stop offset="1" stop-color="#FF2BAB"/>
</linearGradient>
<radialGradient id="paint5_radial_9_41" cx="0" cy="0" r="1" gradientUnits="userSpaceOnUse" gradientTransform="translate(889 87) rotate(-91.2604) scale(54.6583 55.4563)">
<stop offset="0.307292" stop-color="#FF2BAB"/>
<stop offset="1" stop-color="#00FDFF"/>
</radialGradient>
<clipPath id="clip0_9_41">
<rect width="2237.45" height="351.84" fill="white"/>
</clipPath>
</defs>
</svg>
