<svg width="94" height="94" viewBox="0 0 94 94" fill="none" xmlns="http://www.w3.org/2000/svg">
<mask id="mask0_6_10319" style="mask-type:luminance" maskUnits="userSpaceOnUse" x="0" y="0" width="94" height="94">
<path d="M0.692871 0.911438H93.5731V93.7864H0.692871V0.911438Z" fill="white"/>
</mask>
<g mask="url(#mask0_6_10319)">
<path d="M93.5731 43.1302H62.7502L89.3491 27.9323L85.1252 20.3333L58.5314 35.5312L73.7293 9.35415L66.5522 5.1354L51.3543 31.3073V0.911438H42.9116V31.3073L27.7137 5.1354L20.1147 9.35415L35.3127 35.5312L9.13558 20.3333L4.91683 27.9323L31.0887 43.1302H0.692871V51.5729H31.0887L4.91683 66.7708L9.13558 73.9479L35.3127 58.75L20.1147 85.3437L27.7137 89.5677L42.9116 62.9687V93.7864H51.3543V62.9687L66.5522 89.5677L73.7293 85.3437L58.5314 58.75L85.1252 73.9479L89.3491 66.7708L62.7502 51.5729H93.5731V43.1302Z" fill="#FFC22A"/>
</g>
</svg>
