<svg width="193" height="127" viewBox="0 0 193 127" fill="none" xmlns="http://www.w3.org/2000/svg">
<path d="M187.556 36.7424C174.348 36.7424 134.296 60.3882 72.9416 111.518C76.8843 105.018 82.4207 96.9246 96.6968 77.3257C115.546 51.4403 133.124 33.2267 133.124 30.7788C133.124 28.3257 130.353 26.8361 129.291 26.8361C125.879 26.8361 100.103 45.3726 75.1759 65.5028C45.5666 89.3621 18.8322 110.878 11.9051 116.737C43.5405 74.4507 94.1395 17.0392 94.1395 10.1121C94.1395 2.97672 90.6239 0.950684 88.8114 0.950684C71.452 0.950684 0.509277 54.4246 0.509277 60.1746C0.509277 63.0549 3.38428 64.3309 4.34261 63.159C6.04574 61.2424 9.7749 57.2996 33.7437 38.8726C54.0874 23.2163 79.228 7.34131 86.577 6.70589C87.6395 6.59652 88.1707 7.34131 88.1707 8.19548C88.1707 16.1851 3.59782 110.133 3.59782 120.68C3.59782 123.768 6.04574 126.216 8.17594 126.216C12.9728 126.216 76.7749 67.3153 120.77 38.3413L91.3687 74.9819C73.6864 97.0288 63.1395 114.503 63.1395 118.013C63.1395 121.529 65.1655 121.638 67.2957 121.638C68.1499 121.638 77.0978 114.925 88.4937 105.873C126.41 75.6226 177.541 38.1278 191.28 43.6642C192.348 44.0913 192.348 43.133 192.348 41.7476C192.348 39.7267 191.494 36.7424 187.556 36.7424Z" fill="#E121BD"/>
<path d="M170.291 84.034C158.577 95.2215 138.869 113.008 134.395 107.789C132.801 105.977 134.291 101.716 137.27 96.9246C150.905 91.4923 166.989 80.6277 167.312 74.1277C167.416 71.0392 164.541 68.5913 161.77 68.4871C152.822 68.1642 128.858 93.3048 128.431 105.659C128.327 109.706 131.306 114.076 135.14 114.18C140.572 114.393 148.134 109.706 165.395 94.2631C171.249 89.0444 172.317 82.0131 170.291 84.034ZM159.853 75.5131C161.983 77.7527 150.905 84.784 142.702 89.1485C149.416 80.7319 157.723 73.3829 159.853 75.5131Z" fill="#E121BD"/>
</svg>
