<svg width="349" height="191" viewBox="0 0 349 191" fill="none" xmlns="http://www.w3.org/2000/svg">
<mask id="mask0_6_10283" style="mask-type:luminance" maskUnits="userSpaceOnUse" x="0" y="0" width="349" height="191">
<path d="M0.53125 0.666687H348.068V190.339H0.53125V0.666687Z" fill="white"/>
</mask>
<g mask="url(#mask0_6_10283)">
<path d="M83.4269 153.125C82.4738 153.281 81.7603 153.781 81.2863 154.62C80.9009 155.333 80.479 156.021 80.0259 156.693C79.5207 157.547 78.9061 158.307 78.1717 158.974C76.2082 160.578 74.5415 162.448 73.1769 164.589C70.8488 167.552 68.6873 170.635 66.6925 173.833C65.729 175.224 64.6717 176.542 63.5155 177.776C61.7603 180.057 60.0675 182.375 58.3488 184.677C57.4842 185.828 56.5571 186.938 55.7811 188.135C55.5519 188.505 55.2707 188.823 54.9373 189.094C54.604 189.37 54.2342 189.583 53.828 189.74C53.4269 189.891 53.005 189.979 52.578 190C52.1457 190.021 51.7186 189.969 51.3019 189.854C49.979 189.63 48.6925 189.156 47.3853 188.844C47.0259 188.766 46.7134 188.599 46.453 188.339C46.1873 188.078 46.0155 187.771 45.9321 187.412C45.4998 185.912 45.4634 184.401 45.8175 182.88C46.4478 179.984 47.0884 177.094 47.7498 174.208C47.8384 173.766 48.0207 173.37 48.3019 173.016C49.2603 171.885 49.7967 170.578 49.9113 169.099C49.9998 168.198 50.2446 167.339 50.6405 166.521C51.8696 164.234 52.2446 161.599 53.6196 159.38C53.5623 157.969 54.6196 156.964 54.9686 155.729C55.4842 154.198 56.1561 152.734 56.9946 151.349C57.5155 150.505 57.9321 149.609 58.2446 148.672C59.1925 145.099 61.1353 141.927 62.328 138.448C63.0936 136.594 64.2082 134.979 65.6769 133.604C66.1457 133.188 66.4894 132.688 66.7082 132.099C67.854 128.604 69.4165 125.302 71.3957 122.198C72.078 120.938 72.8748 119.74 73.6144 118.51C73.755 118.281 73.9842 118.026 73.9634 117.797C73.8696 115.917 75.479 114.792 75.9842 113.177C76.1248 112.734 76.3957 112.385 76.7915 112.135C77.9634 111.537 78.2238 110.427 78.6978 109.354C79.5259 107.479 80.5415 105.682 81.4842 103.854C81.578 103.599 81.7186 103.365 81.9009 103.162C84.604 100.797 85.7707 97.4271 87.5623 94.474C88.1509 93.2553 88.9113 92.1511 89.8436 91.1719C90.3748 90.5626 90.828 89.9011 91.1978 89.1771C91.5571 88.5573 91.953 87.9688 92.3957 87.4063C93.3957 86.2813 94.6092 85.3125 94.729 83.6511C95.8644 82.5157 96.1613 80.8698 97.3384 79.6928C98.453 78.4011 99.453 77.0261 100.344 75.5678C103.156 71.6303 105.969 67.698 108.786 63.7709C111.083 60.5678 113.255 57.2709 115.75 54.2292C117.172 52.5053 118.427 50.6719 119.515 48.724C119.807 48.2761 120.14 47.8542 120.51 47.4636C121.193 46.6355 121.89 45.8178 122.568 44.9896C122.88 44.5469 123.213 44.125 123.568 43.7188C124.411 43.0573 125.187 42.3282 125.906 41.5313C126.453 40.7657 126.495 39.6459 127.005 38.8386C128.489 36.4844 130.083 34.2032 131.661 31.9115C132.229 30.8855 132.937 29.9688 133.792 29.1615C134.64 28.625 135.198 27.875 135.448 26.9011C135.698 26.125 136.057 25.4115 136.526 24.7448C137.646 22.9063 138.823 21.099 139.943 19.2553C140.349 18.5938 140.667 17.875 141.265 16.7136C140.427 17.1459 140.047 17.323 139.682 17.5365C134.828 20.4532 130.219 23.7188 125.849 27.323C124.109 28.7344 122.271 30.0313 120.505 31.4167C119.239 32.4167 118.021 33.474 116.781 34.5053C114.719 36.2448 112.661 37.9844 110.594 39.7032C109.281 40.7917 107.917 41.8178 106.63 42.9375C104.271 44.7396 102.104 46.7448 100.114 48.9532C98.5988 50.8803 96.7863 52.474 94.6769 53.7344C94.2655 54.073 93.8905 54.4532 93.5623 54.875C92.4738 55.9323 91.7811 57.3855 90.354 58.1042C90.1925 58.1928 90.0623 58.3073 89.953 58.4532C87.2342 61.7761 84.2915 64.8907 81.13 67.7969C79.4321 69.2657 77.9217 70.9063 76.5988 72.724C75.9061 73.6615 75.104 74.5053 74.203 75.2553C70.8592 78.599 67.6353 82.0573 64.4478 85.5469C64.1092 85.9636 63.7394 86.3594 63.3436 86.724C61.9686 87.9115 60.8853 89.3178 60.0832 90.948C59.3436 92.1876 58.4217 93.2709 57.3123 94.1928C56.4842 94.8855 55.7603 95.6719 55.1405 96.5521C54.5675 97.5938 53.7967 98.4636 52.828 99.1563C52.5884 99.2917 52.3957 99.4792 52.2498 99.7084C50.505 102.432 48.4946 104.943 46.2186 107.24C45.7446 107.781 45.3488 108.375 45.0415 109.021C44.1978 110.833 43.0311 112.406 41.5519 113.745C40.8488 114.438 40.2707 115.224 39.8228 116.104C38.7134 118.042 37.3853 119.854 36.1405 121.719C35.3957 122.839 34.6613 123.958 33.9165 125.073C33.5675 125.594 33.2082 126.104 32.8644 126.625C32.4842 127.115 32.1613 127.635 31.88 128.188C31.3957 129.37 30.6613 130.375 29.6769 131.198C29.1405 131.672 28.6821 132.214 28.3019 132.818C25.8696 136.589 23.4425 140.359 21.0884 144.177C20.3644 145.412 19.7446 146.698 19.229 148.031C18.3436 150.193 17.5936 152.406 16.7082 154.563C16.5675 154.995 16.354 155.391 16.0728 155.745C15.7863 156.104 15.453 156.396 15.0623 156.635C14.6717 156.87 14.255 157.031 13.8071 157.115C13.3592 157.203 12.9113 157.208 12.4582 157.13C11.203 157.057 9.95296 156.896 8.70817 156.729C7.45817 156.51 6.28109 156.083 5.18734 155.448C4.09359 154.807 3.14567 153.995 2.34359 153.016C2.03109 152.651 1.79151 152.245 1.62484 151.797C1.45296 151.344 1.36442 150.88 1.35401 150.401C1.34359 149.922 1.41651 149.458 1.56755 149C1.71859 148.547 1.94255 148.13 2.23942 147.75C4.75505 144.563 6.35401 140.818 8.63526 137.484C11.9269 132.672 15.078 127.766 18.2134 122.839C19.505 120.802 20.9686 118.885 22.255 116.833C24.203 113.724 26.5207 110.839 28.6717 107.854C30.0311 105.964 31.3332 104.031 32.7394 102.167C33.979 100.526 35.328 98.9636 36.63 97.3751C36.7394 97.2344 36.9478 97.1459 36.9998 96.9896C37.7811 94.9063 39.6248 93.6042 40.854 91.8438C41.2967 91.2865 41.7707 90.7501 42.2707 90.2448C42.5988 89.948 42.88 89.6094 43.1144 89.2396C44.0623 87.5001 45.2134 85.9115 46.5728 84.474C46.9217 84.0625 47.2863 83.6667 47.5936 83.224C49.3071 80.9375 51.1509 78.7605 53.1144 76.6875C55.7603 73.6563 58.4582 70.6823 60.953 67.5209C62.005 66.2917 63.1248 65.125 64.3123 64.0261C66.0155 62.3021 67.7394 60.6042 69.453 58.8959C69.8332 58.5105 70.2238 58.1407 70.5832 57.7448C72.5832 55.5573 74.5571 53.3438 76.5832 51.1928C77.2394 50.5886 77.9269 50.0313 78.6561 49.5157C79.0155 49.25 79.3488 48.9636 79.6665 48.6459C81.6457 46.3125 83.828 44.1875 86.2238 42.2813C87.5832 41.1146 88.8748 39.8803 90.1092 38.5782C92.1665 36.724 94.1144 34.7553 95.953 32.6823C96.13 32.4792 96.3384 32.3021 96.505 32.0886C97.453 30.8959 99.1457 30.7657 100.052 29.3386C100.989 28.1355 102.088 27.099 103.338 26.2188C104.474 25.1928 105.677 24.2553 106.948 23.4011C109.25 21.8438 111.458 20.1615 113.568 18.3542C114.015 18.0573 114.479 17.7969 114.963 17.5625C115.531 17.2865 116.052 16.948 116.531 16.5365C119.229 13.8855 122.219 11.6042 125.489 9.70317C125.969 9.44796 126.39 9.13026 126.765 8.73963C127.505 7.92192 128.401 7.35942 129.463 7.06255C130.307 6.76046 131.088 6.3438 131.802 5.80734C133.917 4.31255 136.156 3.03651 138.526 1.98442C139.667 1.42713 140.875 1.08859 142.146 0.979214C143.411 0.86984 144.656 0.989632 145.88 1.33859C149.562 2.38026 152.844 4.1563 155.719 6.67713C156.703 7.56255 157.453 8.61463 157.979 9.82817C158.5 11.0469 158.745 12.3125 158.713 13.6355C158.703 15.2657 158.417 16.8438 157.859 18.375C157.229 20.0521 156.505 21.6928 155.682 23.2917C155.562 23.6407 155.375 23.9375 155.114 24.1928C153.286 25.5105 152.703 27.7396 151.281 29.349C150.932 29.7396 150.828 30.3334 150.515 30.7605C150.12 31.4688 149.594 32.0678 148.937 32.5469C147.885 33.25 147.031 34.1407 146.375 35.224C145.042 37.349 143.562 39.3803 141.948 41.3021C141.568 41.8021 141.239 42.3334 140.963 42.8959C139.896 44.448 138.89 46.0521 137.698 47.5053C137.036 48.3073 135.917 48.7344 135.245 49.5313C134.651 50.4271 134.114 51.3594 133.646 52.323C133.422 52.6823 132.969 52.8907 132.635 53.1875C132.302 53.4792 131.807 53.75 131.708 54.1198C131.213 55.9323 129.609 56.9011 128.625 58.3438C127.729 59.2969 127.323 60.4219 127.406 61.7188C126.594 61.6875 125.828 61.8646 125.12 62.25C124.406 62.6407 123.844 63.1823 123.432 63.8803C121.62 66.2084 119.969 68.6615 118.104 70.9375C116.219 73.3334 114.515 75.8542 112.995 78.4948C112.818 78.8073 112.599 79.0886 112.344 79.3438C110.906 80.6771 109.479 82.0209 107.989 83.2969C107.318 83.875 106.172 84.1511 105.864 84.8386C105.469 85.6198 104.953 86.3021 104.312 86.8959C103.693 87.5626 103.739 88.7501 102.713 89.1876C102.432 90.6459 101.229 91.3073 100.224 92.1876C99.505 92.8646 98.9217 93.6459 98.4582 94.5157C97.1665 96.7761 95.9894 99.0782 94.6978 101.328C94.1769 102.255 93.453 103.068 92.8332 103.953C92.1613 104.901 91.5103 105.865 90.8384 106.813C90.5675 107.276 90.2446 107.693 89.8696 108.073C88.7238 109.099 87.8228 110.307 87.1717 111.703C86.4321 113.25 85.453 114.635 84.2342 115.854C82.8228 117.375 81.7394 119.109 80.9946 121.047C80.0415 123.359 78.8436 125.537 77.3905 127.573C77.2238 127.787 77.0832 128.021 76.9738 128.271C75.4061 131.703 73.0103 134.662 71.2655 137.99C70.8905 138.703 70.5988 139.458 70.229 140.172C69.1613 142.443 67.9686 144.651 66.6509 146.792C65.7967 148.052 64.6769 149.078 64.6717 150.734C64.6353 150.917 64.5415 151.063 64.3853 151.167C62.9269 152.438 61.979 154.016 61.5415 155.901C60.9738 157.51 60.2082 159.016 59.2342 160.417C57.6769 163.063 56.5571 165.88 55.8644 168.87C55.8436 169.13 55.8696 169.385 55.9425 169.635C56.0155 169.729 56.0988 169.802 56.203 169.854C56.3071 169.906 56.4165 169.938 56.5311 169.943C56.6509 169.948 56.7603 169.927 56.8696 169.88C56.9738 169.839 57.0675 169.771 57.1457 169.682C57.4894 169.396 57.7863 169.068 58.0467 168.698C59.7186 166.37 61.4894 164.099 63.0103 161.672C65.4582 157.807 68.1873 154.151 71.1978 150.698C71.7186 150.089 72.13 149.385 72.6248 148.75C74.5519 146.281 76.4842 143.818 78.4269 141.365C78.6405 141.073 78.8957 140.818 79.1821 140.604C80.7498 139.37 82.078 137.922 83.1717 136.26C83.7446 135.49 84.1613 134.537 85.1978 134.156C85.479 134.057 85.6717 133.646 85.8644 133.349C87.1561 131.406 88.6457 129.62 90.3332 128.005C91.4425 126.844 92.4686 125.615 93.4061 124.313C94.1665 123.318 94.8644 122.281 95.4946 121.203C95.8019 120.552 96.0519 119.885 96.2446 119.193C98.104 118.24 99.6978 116.953 101.015 115.333C102.37 113.912 103.583 112.354 104.901 110.885C106.161 109.479 107.495 108.172 108.818 106.833C110.87 105.099 112.703 103.162 114.328 101.026C115.219 99.3959 116.495 98.1719 118.161 97.349C118.552 97.1042 118.802 96.7553 118.917 96.3073C118.995 95.9011 119.172 95.5417 119.448 95.2344C119.724 94.9219 120.057 94.7032 120.453 94.5782C120.901 94.4636 121.286 94.2448 121.609 93.9219C121.937 93.599 122.161 93.2136 122.276 92.7709C122.51 91.9636 122.984 91.3334 123.687 90.8698C124.062 90.6146 124.375 90.2969 124.63 89.9271C125.469 88.7553 126.479 87.7553 127.661 86.9323C129.338 85.7761 130.526 84.0261 132.286 82.9375C133.896 80.1042 136.911 78.4948 138.536 75.625C139.411 74.3646 140.489 73.3073 141.76 72.4532C143.833 70.7553 145.672 68.8334 147.271 66.6875C147.531 66.3178 147.833 65.9948 148.177 65.7032C152.458 62.2865 156.469 58.5886 160.219 54.6042C161.614 53.198 163.068 51.8594 164.573 50.5886C167.594 48.0417 170.599 45.4688 173.745 43.0886C176.172 41.25 178.807 39.6875 181.338 37.9844C181.953 37.5417 182.635 37.3959 183.38 37.5521C186.151 37.9844 188.489 39.224 190.396 41.2761C191.573 42.7761 192.646 44.3438 193.625 45.9792C192.88 49.1459 191.489 51.9948 189.448 54.5313C188.135 56.2344 186.682 57.8073 185.094 59.2553C184.187 60.0105 183.401 60.8646 182.734 61.8334C181.265 63.8698 179.667 65.8021 177.932 67.6198C176.521 69.2448 175.203 70.9428 173.864 72.6303C173.12 73.75 172.198 74.6928 171.094 75.4584C170.25 75.9636 169.838 77.1667 169.198 78.0313C168.693 78.724 168.396 79.7032 167.177 79.4688C167 79.4323 166.682 79.8855 166.495 80.1615C165.437 81.823 164.271 83.3959 162.989 84.8855C161.859 85.9428 160.995 87.1876 160.396 88.6146C160.099 89.2813 159.682 89.8594 159.146 90.3542C157.38 92.2501 155.568 94.1094 153.781 95.9896C153.542 96.2448 153.37 96.573 153.146 96.8594C152.276 97.9896 151.417 99.1355 150.51 100.245C149.698 101.083 149.026 102.026 148.489 103.068C148.146 103.912 147.64 104.646 146.984 105.276C145.422 106.901 144.094 108.698 142.989 110.662C141.797 112.682 140.328 114.484 138.594 116.073C138.12 116.49 137.724 116.974 137.411 117.521C136.094 119.76 134.463 121.781 133.156 124.031C132.177 125.719 130.771 127.162 129.698 128.797C128.76 130.432 127.713 131.995 126.562 133.49C125.484 134.927 124.521 136.438 123.661 138.016C122.917 139.443 122.036 140.781 121.021 142.037C119.64 143.818 118.62 145.787 117.969 147.943C117.385 149.547 116.594 151.047 115.604 152.443C113.979 154.635 112.922 157.073 112.437 159.755C112.328 160.193 112.26 160.641 112.193 161.083C112.104 161.974 111.958 162.859 111.75 163.729C111.411 164.604 111.01 165.448 110.552 166.266C110.989 166.182 111.302 166.219 111.422 166.089C114.765 162.578 118.578 159.526 121.646 155.745C122.015 155.224 122.469 154.792 123.01 154.453C124.713 153.396 126.135 152.047 127.276 150.406C128.172 149.396 129.13 148.448 130.14 147.563C131.51 146.26 132.927 145.021 134.265 143.682C135.078 142.865 135.672 141.87 136.943 141.557C137.469 141.427 137.901 140.781 138.265 140.292C139.656 138.068 141.411 136.177 143.526 134.625C144.245 134.068 144.849 133.412 145.344 132.651C145.792 132.073 146.114 131.412 147.015 131.537C147.156 131.552 147.437 131.427 147.458 131.333C147.776 129.781 149.656 129.547 150.146 128.089C150.401 127.307 151.187 127.635 151.875 127.807C152.198 127.208 152.573 126.604 152.849 125.964C153.182 125.068 153.786 124.438 154.672 124.073C155.609 123.74 156.286 123.125 156.708 122.224L158.312 122.302C158.239 121.563 158.359 120.854 158.667 120.177C158.969 119.5 159.427 118.943 160.031 118.505C161.396 117.104 162.75 115.682 164.14 114.307C165.833 113 167.286 111.464 168.495 109.703C168.771 109.182 169.474 108.901 169.854 108.417C170.568 107.474 171.432 106.708 172.458 106.115C173.479 105.526 174.578 105.156 175.75 105.005C175.75 104.563 175.765 104.219 175.739 103.88C175.661 103.417 175.745 102.984 175.989 102.589C176.234 102.188 176.583 101.917 177.031 101.776C177.422 101.62 177.943 101.391 178.078 101.063C178.406 100.281 178.963 99.7344 179.75 99.4219C180.161 99.2188 180.463 98.9115 180.651 98.4948C180.781 97.9844 181.052 97.5573 181.448 97.2136C181.849 96.8698 182.312 96.6667 182.838 96.6146C183.411 96.5313 183.917 95.8073 184.146 95.0313C184.245 94.6251 184.458 94.2865 184.781 94.0157C185.104 93.7448 185.479 93.5938 185.896 93.5678C186.245 93.5261 186.614 93.1042 186.849 92.7657C187.198 92.2657 187.312 91.5521 187.739 91.1615C189.5 89.6146 191.047 87.8803 192.385 85.9584C192.812 85.3334 193.239 85.4271 194.245 86.2865C195.161 85.3438 195.906 84.2761 196.479 83.0938C197.229 81.1198 198.458 79.5157 200.167 78.2709C201.437 77.2709 202.646 76.198 203.786 75.0573L205.005 75.0261C205.151 74.9011 205.276 74.7605 205.385 74.6042C206.781 71.5521 208.724 68.9011 211.224 66.6511C212.63 65.448 214.015 64.2188 215.463 63.0678C216.12 62.599 216.807 62.1823 217.526 61.8178C218.661 61.1563 220.114 61.0209 220.901 59.7553C221.015 59.573 221.375 59.4948 221.63 59.4532C222.307 59.3698 222.802 59.0261 223.104 58.4115C223.937 56.9896 225.047 55.8386 226.443 54.9532C226.958 54.5886 227.417 54.1615 227.823 53.6771C228.271 52.9792 228.875 52.4636 229.64 52.1407C229.896 52.0469 230.104 51.8907 230.265 51.6719C231.797 49.5313 233.713 47.823 236.015 46.5469C236.979 46.0469 237.568 44.8594 238.39 44.0469C239.088 43.3646 239.88 42.7813 240.625 42.1511C241.047 41.823 241.448 41.474 241.833 41.099C245.146 37.7865 248.792 34.8855 252.76 32.3907C253.88 31.6563 254.854 30.7188 255.932 29.9115C256.937 29.1667 257.995 28.4896 259.015 27.7605C260.114 26.9792 261.213 26.2032 262.281 25.3855C266.265 22.1928 270.739 19.9844 275.703 18.7605C277.875 18.3907 280 18.5834 282.068 19.3386C282.156 19.3646 282.265 19.3855 282.312 19.448C283.37 20.8803 285.234 21.1459 286.458 22.2813C287.698 23.4532 288.812 24.7344 289.812 26.1198C290.651 27.1459 291.193 28.3021 291.443 29.599C291.698 30.8959 291.62 32.1771 291.224 33.4375C290.099 37.5938 287.974 41.1511 284.844 44.1198C283.401 45.599 282.036 47.1511 280.755 48.7761C280.349 49.4167 279.776 49.8021 279.026 49.9271C278.677 49.9584 278.318 50.3855 278.052 50.7032C275.87 53.323 273.729 55.9636 271.536 58.5678C271.01 59.3073 270.359 59.9167 269.588 60.3959C268.609 60.9271 267.906 61.7032 267.479 62.7344C266.443 64.9844 264.901 66.8125 262.859 68.2188C262.318 68.5573 261.849 68.974 261.453 69.474C259.578 71.875 257.484 74.073 255.167 76.0625C254.411 76.8178 253.719 77.625 253.099 78.4948C251.323 80.849 249.39 83.0678 247.312 85.1563C246.318 86.125 245.172 86.9844 244.213 88.0157C243.729 88.5365 243.26 89.073 242.792 89.6094C242.484 90.0469 242.135 90.448 241.745 90.8126C240.167 91.9896 238.88 93.4844 237.354 94.7344C235.64 96.3073 234.047 97.9896 232.573 99.7865C231.729 100.714 230.922 101.672 230.125 102.635C229.213 103.74 228.323 104.859 227.422 105.979C226.859 106.672 226.307 107.375 225.734 108.063C224.859 109.094 224.135 110.219 223.562 111.443C222.417 113.797 220.927 115.901 219.083 117.76C216.088 120.974 212.88 124 210.01 127.318C208.333 128.964 206.927 130.807 205.786 132.859C205.568 133.365 205.255 133.797 204.849 134.167C202 136.906 199.573 139.974 197.568 143.375C195.901 146.016 194.417 148.76 193.109 151.594C192.667 152.641 192.344 153.719 192.146 154.833C192.469 154.76 192.776 154.651 193.062 154.495C195.307 152.427 197.568 150.37 199.76 148.25C201.375 146.688 202.896 145.052 204.463 143.438C206.958 140.854 209.427 138.255 211.937 135.682C213.187 134.406 214.531 133.208 215.771 131.922C216.515 131.151 217.109 130.234 217.859 129.453C218.906 128.354 219.989 127.281 221.125 126.276C223.193 124.417 225.359 122.682 227.625 121.063C228.333 120.557 228.687 119.5 229.422 119.099C230.536 118.479 230.39 116.948 231.646 116.495C232.802 116.078 233.328 114.948 234.14 114.13C235.26 113.125 236.448 112.214 237.703 111.38C238.13 111.063 238.703 110.823 238.943 110.396C239.557 109.271 240.14 108.229 241.552 107.896C241.89 107.818 242.114 107.234 242.385 106.885C243.474 105.49 244.364 103.88 246.161 103.193C246.25 103.167 246.318 103.115 246.375 103.037C246.864 102.182 246.755 100.813 248.271 100.833C249.021 100.078 249.807 99.3594 250.515 98.5626C251.224 97.7709 252.661 97.4584 252.542 95.9844C253.114 95.4219 253.755 94.9428 254.453 94.5521C256.021 93.9167 257.349 93.1459 257.724 91.3438C257.755 91.1823 257.875 90.9532 258.01 90.9115C259.812 90.3073 260.588 88.5001 262.068 87.4688C263.349 86.573 264.443 85.3282 265.661 84.2813C266.239 83.7917 266.63 84.1303 267.094 84.2813C268.255 83.4532 268.818 81.9688 270.318 81.4896C270.661 81.3803 270.854 80.8073 271.12 80.448C271.588 79.8178 271.807 79 272.734 78.7344C273.068 78.6407 273.292 78.0886 273.521 77.7188C273.807 77.0521 274.229 76.4792 274.776 75.9948C275.328 75.5157 275.953 75.1771 276.656 74.9792C277.01 74.8803 277.286 74.6667 277.479 74.3542C278.333 73.3021 279.359 72.4688 280.573 71.8594C281.151 71.4532 281.932 71.099 282.203 70.5209C283.281 68.573 284.818 67.1042 286.828 66.1303C288.917 64.875 290.349 62.8386 292.495 61.6823C292.864 61.4115 293.161 61.0782 293.385 60.6823C294.229 59.4532 295.359 58.6094 296.771 58.1407C297.786 57.8907 298.568 57.3282 299.114 56.4428C299.328 56.1459 299.594 55.9167 299.917 55.7448C302.39 54.1355 304.901 52.573 307.349 50.9219C308.838 49.9167 310.239 48.7865 311.677 47.7032C311.963 47.4896 312.208 47.0678 312.5 47.0417C314.286 46.8646 315.198 45.3803 316.505 44.5C317.995 43.5105 319.505 42.5521 320.989 41.5469C322.625 40.6094 324.12 39.4896 325.479 38.1875C326.505 37.3073 327.64 36.6146 328.89 36.1042C330.844 34.9896 332.802 33.9011 334.739 32.7605C335.323 32.4011 335.958 32.2136 336.646 32.2032C337.333 32.198 337.974 32.3594 338.568 32.7032C340.885 33.9688 342.812 35.6771 344.354 37.8178C345.036 38.6563 345.651 39.5365 346.203 40.4636C346.651 41.1355 346.974 41.8594 347.172 42.6459C347.651 44.7917 347.557 46.9167 346.88 49.0157C346.469 50.1823 345.922 51.2761 345.229 52.2969C344.13 53.9323 342.771 55.3959 341.719 57.0573C339.771 59.625 337.687 62.0782 335.469 64.4115C335.083 64.7917 334.786 65.2292 334.573 65.7292C334.286 66.7813 333.547 67.2396 332.708 67.8386C331.385 68.8855 330.172 70.0521 329.078 71.3334C328.547 71.948 328.099 72.6146 327.734 73.3386C327.515 73.7292 327.193 74.0053 326.771 74.1563C326.14 74.4844 325.562 74.8803 325.026 75.3438C323.109 77.1042 321.338 78.9948 319.713 81.0209C318.031 82.6407 316.469 84.3698 315.026 86.2032C314.708 86.6407 314.323 87.0157 313.875 87.323C311.385 88.9948 309.323 91.0886 307.698 93.6094C307.146 94.4428 306.453 95.1303 305.604 95.6667C304.552 96.3698 303.63 97.2136 302.833 98.198C301.323 99.9792 299.849 101.797 298.359 103.594C298.094 103.964 297.807 104.307 297.5 104.635C294.167 107.901 291.104 111.406 288.323 115.146C285.042 118.844 282.01 122.729 279.229 126.807C278.906 127.24 278.547 127.635 278.146 127.995C277.755 128.365 277.396 128.766 277.068 129.193C275.724 131.203 274.443 133.255 273.083 135.26C271.578 137.484 269.948 139.63 268.479 141.875C266.271 145.255 264.125 148.677 262.005 152.109C261.568 152.927 261.193 153.766 260.87 154.63C261.307 155.151 261.724 155.599 262.088 156.094C262.542 156.646 262.932 157.24 263.255 157.88C263.422 158.13 263.521 158.406 263.552 158.703C263.583 159.005 263.542 159.292 263.432 159.573C263.318 159.849 263.146 160.089 262.917 160.287C262.687 160.479 262.427 160.609 262.135 160.677C261.474 160.958 260.786 161.177 260.13 161.469C259.453 161.771 258.755 161.87 258.021 161.755C257.292 161.635 256.651 161.333 256.104 160.833C254.51 159.516 253.182 157.964 252.13 156.188C251.765 155.542 251.625 154.859 251.703 154.125C251.875 150.198 252.953 146.537 254.937 143.146C256.062 141.214 256.854 139.089 257.838 137.063C260.198 132.208 262.911 127.563 265.984 123.125C266.896 121.802 267.526 120.287 268.432 118.953C270.156 116.443 272.146 114.099 273.729 111.505C275.635 108.458 277.828 105.625 280.302 103.01C283.229 99.8542 285.687 96.3021 288.812 93.323C290.354 91.849 291.651 90.1146 293.083 88.5313C294.047 87.4688 295.062 86.4428 296.057 85.4167C297.802 83.6094 299.521 81.7709 301.312 80.0053C302.271 79.0573 303.042 77.974 303.922 76.974C306.213 74.073 308.818 71.4844 311.734 69.2136C312.177 68.9011 312.505 68.4948 312.719 67.9948C313.422 66.3803 314.531 65.1303 316.057 64.2396C317.557 62.9636 318.802 61.474 319.781 59.7709C319.833 59.698 319.661 59.4688 319.536 59.1667C318.172 60.0209 316.833 60.8698 315.489 61.7084C313.885 62.698 312.271 63.6667 310.677 64.6719C310.229 64.9792 309.812 65.3125 309.411 65.6771C307.729 67.1875 305.844 68.375 303.755 69.2344C302.609 69.7657 301.651 70.5261 300.864 71.5105C299.458 73.0105 297.885 74.2969 296.135 75.3803C294.521 76.474 292.734 77.2813 291.219 78.5261C289.974 79.5625 288.63 80.448 287.187 81.1823C285.979 81.9323 284.828 82.7605 283.734 83.6667C282.094 84.8959 280.625 86.3021 279.338 87.8959C278.937 88.2501 278.505 88.5626 278.047 88.8282C277.265 89.2865 276.568 89.849 275.953 90.5105C274.422 92.3021 272.599 93.724 270.489 94.7709C269.755 95.2657 269.099 95.8438 268.526 96.5105C267.14 98.0313 265.573 99.3855 264.068 100.787C263.484 101.333 262.833 101.813 262.265 102.375C260.562 104.229 258.708 105.912 256.703 107.427C254.995 108.714 253.375 110.104 251.844 111.599C251.594 111.823 251.51 112.229 251.302 112.51C250.693 113.542 249.849 114.318 248.765 114.828C247.958 115.109 247.364 115.635 246.984 116.396C245.87 118.135 244.489 119.625 242.833 120.865C242.302 121.339 241.875 121.927 241.38 122.448C241.078 122.771 240.75 123.302 240.417 123.318C239.047 123.365 238.698 124.443 238.135 125.323C237.844 125.776 237.651 126.401 237.234 126.651C234.62 128.214 233.229 131.297 230.146 132.26C229.812 132.396 229.521 132.589 229.26 132.839C225.443 136.224 221.802 139.787 218.344 143.537C217.083 145.313 215.495 146.714 213.578 147.75C213.318 147.849 213.109 148.01 212.958 148.245C211.583 150.604 208.989 151.813 207.489 154.057C206.927 155.037 206.114 155.719 205.052 156.104C204.87 156.151 204.724 156.245 204.604 156.385C203.323 158.01 201.885 159.484 200.286 160.802C200.104 160.974 199.87 161.271 199.901 161.484C200.12 163.104 198.828 163.844 197.984 164.828C197.224 165.693 196.417 166.542 195.594 167.432C195.854 168.208 196.062 169 196.213 169.807C196.281 170.094 196.297 170.38 196.25 170.672C196.208 170.958 196.109 171.229 195.958 171.479C195.807 171.734 195.614 171.948 195.385 172.125C195.151 172.302 194.89 172.427 194.609 172.505C193.781 172.912 192.911 173.052 191.995 172.927C191.083 172.802 190.281 172.438 189.594 171.823C188.911 171.24 188.198 170.698 187.448 170.203C186.677 169.708 186.068 169.063 185.614 168.266C185.156 167.474 184.906 166.62 184.864 165.708C184.88 164.583 184.521 163.589 183.797 162.729C183.552 162.448 183.458 162.125 183.51 161.76C183.672 160.583 183.568 159.432 183.198 158.307C183.114 156.432 183.307 154.583 183.771 152.766C184.182 151.391 184.547 150.005 184.911 148.615C184.989 148.245 185.042 147.87 185.073 147.495C184.526 147.063 184.036 146.568 183.604 146.026C183.344 145.453 183.172 144.859 183.083 144.24C183.651 142.88 184.703 143.115 185.88 143.516C186.286 142.932 186.739 142.375 187.083 141.76C187.823 140.432 188.505 139.068 189.219 137.719C189.484 137.359 189.698 136.964 189.854 136.542C190.62 133.505 192.167 130.943 194.5 128.849C195.354 127.703 196.057 126.474 196.614 125.162C197.323 123.974 198.833 123.484 199.469 122.057C200.588 119.896 202.015 117.958 203.75 116.245C204.469 115.448 205.234 114.682 205.932 113.875C206.807 112.859 207.401 111.604 208.703 111.021C210.12 108.854 212.177 107.099 212.838 104.469C213.396 102.469 214.234 100.594 215.37 98.8438C216.5 97.099 217.87 95.5626 219.474 94.2396C221.724 92.1771 223.849 89.9948 225.849 87.698C228.182 85.0886 230.713 82.6563 233.167 80.1563C233.64 79.7448 234.078 79.2917 234.469 78.8021C236.047 76.7188 237.792 74.7917 239.708 73.0105C241.552 71.0521 243.417 69.1094 245.281 67.1615C245.453 66.9532 245.64 66.7605 245.838 66.5782C246.963 65.6823 246.922 63.8646 248.354 63.2605C249.526 62.5678 250.515 61.6719 251.318 60.5782C252.328 59.5625 253.276 58.4896 254.213 57.4011C256.208 55.0886 258.14 52.7292 260.167 50.448C262.729 47.5678 265.364 44.7501 267.943 41.8855C269.026 40.6876 270.078 39.4584 271.099 38.2032C271.656 37.5157 272.125 36.7605 272.734 35.8803C268.281 37.4219 266.172 38.7813 264.531 41.1771C263.823 41.0938 263.135 41.1928 262.479 41.4688C261.818 41.7501 261.271 42.1719 260.838 42.7448C260.323 43.4271 259.64 43.8073 258.786 43.8803C257.927 43.9688 257.234 44.349 256.708 45.0313C255.849 45.9584 254.854 46.7136 253.724 47.2865C253.406 47.4636 252.963 47.6355 252.854 47.9011C252.219 49.5834 250.521 50.0573 249.323 51.0886C247.417 52.7292 245.531 54.4063 243.505 55.8907C241.62 57.3907 239.849 59.0157 238.182 60.7553C237.802 61.125 237.312 61.3803 236.922 61.7344C236.12 62.4428 235.354 63.198 234.557 63.9115C233.406 65.1719 232.114 66.2709 230.682 67.198C229.359 67.8959 228.193 68.7917 227.177 69.8855C226.588 70.4375 225.948 70.9323 225.265 71.3646C223.547 72.3594 222.052 73.6198 220.781 75.1407C220.614 75.3542 220.417 75.5365 220.193 75.6928C216.599 78.2553 213.833 81.7084 210.614 84.6771C207.651 87.4063 204.864 90.3282 201.995 93.1511C201.693 93.4844 201.338 93.7553 200.932 93.9532C199.838 94.4428 199.01 95.2188 198.458 96.2813C197.656 97.349 196.76 98.3334 195.776 99.2344C194.984 100.094 194.208 100.974 193.401 101.807C192.984 102.281 192.51 102.688 191.979 103.021C189.984 103.995 188.479 105.464 187.463 107.432C187.026 108.333 185.958 108.927 185.187 109.672C184.286 110.537 183.359 111.38 182.51 112.292C181.328 113.922 179.823 115.151 177.984 115.974C177.323 116.844 176.474 117.448 175.432 117.781C175.198 117.938 175.062 118.151 175.031 118.432C174.859 119.26 174.427 119.927 173.75 120.432C170.677 123.427 167.854 126.651 164.896 129.75C163.375 131.51 161.495 132.719 159.25 133.365C158.838 134.037 158.458 134.724 158.12 135.438C157.958 136.052 157.63 136.557 157.135 136.958C156.64 137.359 156.078 137.578 155.443 137.609C155.104 137.656 154.781 137.766 154.479 137.932C154.177 138.099 153.917 138.318 153.698 138.578C153.479 138.844 153.312 139.141 153.203 139.464C153.094 139.792 153.047 140.125 153.068 140.469C153.026 140.833 152.948 141.188 152.838 141.537L151.172 142.042C150.51 144.755 148.234 146.12 146.12 147.625C145.979 147.724 145.771 147.849 145.635 147.802C144.099 147.281 143.755 148.354 143.489 149.443C143.213 150.573 142.76 151.438 141.432 151.589C140.989 151.703 140.63 151.938 140.344 152.287C139.583 153.047 138.89 153.865 138.276 154.74C137.896 155.49 137.302 155.99 136.495 156.234C136.135 156.328 135.844 156.531 135.625 156.833C135.406 157.135 135.307 157.474 135.333 157.849C135.344 158.391 135.177 158.87 134.833 159.292C133.13 160.708 131.698 162.547 129.38 163.073C128.614 163.245 128.094 163.698 127.812 164.432C126.885 166.307 125.594 167.896 123.943 169.188C123.437 169.573 123.031 170.042 122.724 170.594C121.505 173.49 119.094 175.448 117.13 177.74C116.713 178.302 116.177 178.703 115.521 178.948C114.87 179.193 114.198 179.24 113.515 179.089C113.078 178.948 112.635 178.917 112.182 178.99C111.323 179.125 110.484 179.057 109.661 178.776C108.838 178.5 108.13 178.042 107.531 177.412C106.401 176.531 105.307 175.594 104.26 174.615C103.745 174.115 103.323 173.547 103 172.901C101.578 170.016 100.963 166.964 101.151 163.755C101.25 160.135 101.922 156.63 103.172 153.234C103.521 151.74 104.083 150.333 104.854 149.005C105.031 148.787 104.885 148.333 104.901 147.99C104.917 147.729 104.854 147.37 105 147.219C106.411 145.724 106.713 143.682 107.656 141.958C108.854 139.75 109.979 137.5 111.161 135.287C111.838 134.021 112.557 132.781 113.276 131.537C115.922 126.958 118.807 122.531 121.739 118.13C122.859 116.292 124.109 114.542 125.484 112.885C125.896 112.401 126.25 111.885 126.562 111.333C129.437 106.557 132.911 102.193 136.187 97.698C136.771 96.9011 137.505 96.224 138.14 95.4688C138.76 94.9271 139.047 94.2501 139.01 93.4376C138.625 93.5886 138.239 93.6303 138.036 93.8438C137.234 94.6823 136.536 95.6251 135.713 96.448C133.807 98.349 131.849 100.198 129.911 102.068C129.281 102.563 128.713 103.125 128.213 103.755C127.552 104.703 126.724 105.469 125.729 106.057C124.734 106.646 123.661 107 122.51 107.115L123.193 108.974C122.922 109.188 122.542 109.719 122.114 109.76C121.661 109.802 121.25 109.958 120.88 110.229C120.51 110.5 120.239 110.849 120.068 111.271C119.109 112.797 117.89 114.063 116.396 115.073C115.39 115.854 114.614 116.823 114.073 117.974C113.448 119.292 112.562 120.401 111.417 121.302C109.13 123.208 107.088 125.349 105.302 127.729C104.875 128.307 104.37 128.823 103.896 129.365C102.87 130.531 102.87 130.531 101.135 130.885C100.906 131.484 100.661 132.151 100.427 132.771L98.953 133.49L98.9842 133.453C98.3436 134.104 97.979 134.885 97.8905 135.797C97.828 136.391 97.5936 136.906 97.1978 137.349C96.7967 137.792 96.3071 138.078 95.7238 138.203C95.5936 138.115 95.453 138.052 95.2967 138.016C95.229 138.016 95.1509 138.214 95.0728 138.323C95.1509 138.339 95.2394 138.38 95.3019 138.359C95.453 138.302 95.604 138.234 95.7498 138.156C95.7134 138.333 95.6665 138.505 95.5988 138.677C94.4582 141.083 94.3436 141.188 91.7915 142.193C91.8019 142.766 91.7394 143.333 91.604 143.891C91.3488 144.359 91.0259 144.781 90.6457 145.156C90.4634 145.344 90.3071 145.557 90.1769 145.787C90.0571 146.146 89.8748 146.469 89.6405 146.76C89.4009 147.057 89.1196 147.297 88.7915 147.49C88.4686 147.682 88.1196 147.807 87.7498 147.875C87.3748 147.943 87.005 147.938 86.63 147.87C86.5728 147.87 86.505 147.984 86.3019 148.167C86.2915 148.813 86.2811 149.589 86.2707 150.328C85.6248 151.104 84.4321 150.479 83.9061 151.432C83.5155 151.948 83.3436 152.526 83.3853 153.172L83.4269 153.125ZM137.557 92.323L137.161 92.1251C137.12 92.2761 137.005 92.4532 137.057 92.5573C137.109 92.6615 137.312 92.7188 137.453 92.7917C137.489 92.6355 137.521 92.4792 137.557 92.323ZM199.38 92.7865C199.307 92.8021 199.203 92.7865 199.172 92.8334C199.135 92.8803 199.146 92.9792 199.135 93.0573L199.484 92.9948L199.38 92.7865ZM55.0988 171.172L55.229 171.344C55.2707 171.287 55.3436 171.224 55.3436 171.172C55.3436 171.115 55.2655 171.052 55.2238 170.995L55.0988 171.172Z" fill="#A6FF00"/>
</g>
</svg>
